Coordinates
version=1
nRows=11
nColumns=40
inDegrees=yes

Units are S.I. units (second, meters, Newtons, ...)
Angles are in degrees.

endheader
time	pelvis_tilt	pelvis_list	pelvis_rotation	pelvis_tx	pelvis_ty	pelvis_tz	hip_flexion_r	hip_adduction_r	hip_rotation_r	knee_angle_r	knee_angle_r_beta	ankle_angle_r	subtalar_angle_r	mtp_angle_r	hip_flexion_l	hip_adduction_l	hip_rotation_l	knee_angle_l	knee_angle_l_beta	ankle_angle_l	subtalar_angle_l	mtp_angle_l	lumbar_extension	lumbar_bending	lumbar_rotation	arm_flex_r	arm_add_r	arm_rot_r	elbow_flex_r	pro_sup_r	wrist_flex_r	wrist_dev_r	arm_flex_l	arm_add_l	arm_rot_l	elbow_flex_l	pro_sup_l	wrist_flex_l	wrist_dev_l
      0.00000000	     -3.70796428	      5.75685132	      3.49609124	     -0.90132475	      0.95747825	     -1.44260162	     28.34693477	    -13.95106203	    -16.02503760	    -54.98616471	     -0.95968962	      5.41382486	    -15.84295508	     15.97847838	     -0.28701066	     -4.23252866	     14.84922879	     -9.01821317	     -0.15739751	      3.46123040	      0.13365673	     -8.22310039	     -4.49614352	     -6.55556399	     -4.25395259	      0.27101476	     -7.95528666	    -10.80290077	     20.34472931	     89.95437384	      0.00000000	      0.00000000	      9.00046347	     20.32417787	     10.39494504	     21.65255291	     89.95437384	      0.00000000	      0.00000000
      0.01000000	     -3.91788233	      5.52176777	      3.72727489	     -0.89087683	      0.95630596	     -1.44489405	     29.23496602	    -13.56997856	    -16.81229831	    -52.64149866	     -0.91876747	      5.45700816	    -15.41704621	     15.88389306	     -0.92056315	     -4.13118868	     14.50733142	     -8.72466766	     -0.15227418	      3.89534599	     -0.06147948	     -8.29989130	     -4.35008190	     -6.26948186	     -4.83122163	     -0.17090935	     -7.79833588	    -11.22505402	     20.09218466	     89.95437384	      0.00000000	      0.00000000	     10.07128303	     21.24213583	     10.95148627	     22.60241146	     89.95437384	      0.00000000	      0.00000000
      0.02000000	     -4.23035686	      5.65921308	      3.83878334	     -0.88034189	      0.95467319	     -1.44713847	     30.29209588	    -13.60170267	    -17.39694197	    -50.37576482	     -0.87922296	      5.64993591	    -14.98562601	     15.73596287	     -1.33276998	     -4.42625612	     14.71232153	     -8.68605615	     -0.15160028	      4.26725146	     -0.04207530	     -8.31041422	     -4.07154102	     -6.40287473	     -5.21514181	     -0.76913757	     -7.69562438	    -11.24872942	     19.96471033	     89.95437384	      0.00000000	      0.00000000	     11.19682941	     22.19366098	     11.22474706	     23.44564466	     89.95437384	      0.00000000	      0.00000000
      0.03000000	     -3.90837345	      4.74331959	      4.28959205	     -0.86928119	      0.95425604	     -1.44910791	     29.98181835	    -12.49048250	    -18.84650817	    -47.16645058	     -0.82320986	      5.50989799	    -14.40146136	     15.78312912	     -2.45403789	     -3.45803604	     14.12259997	     -8.54167202	     -0.14908030	      4.98357489	     -0.04111744	     -8.59204437	     -4.51068700	     -5.30571876	     -6.05548000	     -0.98853333	     -7.49250610	    -12.43788066	     19.53004581	     89.95437384	      0.00000000	      0.00000000	     12.19745393	     22.88339915	     12.50264507	     24.43333920	     89.95437384	      0.00000000	      0.00000000
      0.04000000	     -3.76961808	      4.35157024	      4.51679544	     -0.85824808	      0.95324698	     -1.45096217	     30.02761827	    -11.87318973	    -19.88801244	    -43.98965228	     -0.76776427	      5.30756950	    -13.82909826	     15.82973943	     -3.34326966	     -3.07597784	     13.99553281	     -8.52048082	     -0.14871044	      5.39835300	     -0.12111634	     -8.93301779	     -4.71399206	     -4.81161389	     -6.59503028	     -1.44955760	     -7.43559031	    -12.66287231	     19.39329214	     89.95437384	      0.00000000	      0.00000000	     13.24787459	     23.65596640	     13.20789950	     25.30645842	     89.95437384	      0.00000000	      0.00000000
      0.05000000	     -3.84231610	      4.05005356	      4.62524908	     -0.84736889	      0.95164907	     -1.45249047	     30.36489317	    -11.25678699	    -20.54890517	    -40.82661782	     -0.71255890	      5.06484590	    -13.07574784	     15.80186170	     -3.99373410	     -2.76768411	     14.00302439	     -8.54752440	     -0.14918244	      5.91929599	     -0.33375574	     -9.25081396	     -4.68142263	     -4.44360036	     -6.98092864	     -1.87004885	     -7.32318927	    -13.15100667	     19.18470197	     89.95437384	      0.00000000	      0.00000000	     14.10926730	     24.50251807	     13.63585420	     26.40995440	     89.95437384	      0.00000000	      0.00000000
      0.06000000	     -4.14659787	      4.09408842	      4.73636074	     -0.83653170	      0.94951103	     -1.45404656	     30.93314824	    -10.97715797	    -20.86823009	    -37.65420470	     -0.65718985	      5.00081126	    -12.08066875	     15.70984365	     -4.39916601	     -2.87181727	     13.97931868	     -8.57686365	     -0.14969451	      6.25220297	     -0.53027956	     -9.37065033	     -4.40770615	     -4.49920596	     -7.32359311	     -2.41476751	     -7.26165307	    -13.15602649	     19.04068310	     89.95437384	      0.00000000	      0.00000000	     14.95438330	     25.38572879	     13.71377285	     27.45464529	     89.95437384	      0.00000000	      0.00000000
      0.07000000	     -3.62654348	      3.41830500	      4.81810905	     -0.82481971	      0.94856873	     -1.45509306	     30.20459768	     -9.85749547	    -21.96534495	    -33.88056954	     -0.59132749	      4.73886724	    -11.14225799	     15.74706715	     -5.76986859	     -2.03874682	     14.32126111	     -8.49257202	     -0.14822334	      6.72547577	     -0.97649341	     -9.91083824	     -4.97105243	     -3.64392147	     -7.73477103	     -2.67949441	     -7.28028232	    -13.41801536	     18.75342776	     89.95437384	      0.00000000	      0.00000000	     15.68825951	     26.12312025	     14.23195183	     28.62167896	     89.95437384	      0.00000000	      0.00000000
      0.08000000	     -3.44962203	      3.11247889	      4.91945054	     -0.81316212	      0.94691055	     -1.45628106	     29.93384052	     -9.18276962	    -22.75426707	    -30.29402423	     -0.52873047	      4.40173323	     -9.90361859	     15.53671081	     -6.77327089	     -1.60204996	     14.81816928	     -8.45633096	     -0.14759082	      6.84334996	     -2.15089122	    -10.68732752	     -5.15680494	     -3.23731451	     -8.03928463	     -3.20678357	     -7.28106468	    -13.64210348	     18.70551652	     89.95437384	      0.00000000	      0.00000000	     16.45038682	     26.84263499	     14.44809546	     29.64661530	     89.95437384	      0.00000000	      0.00000000
      0.09000000	     -3.87353581	      3.24215043	      4.91157590	     -0.80204627	      0.94412660	     -1.45728761	     30.55755482	     -8.89950122	    -22.85861858	    -27.00728979	     -0.47136613	      4.06564666	     -8.57563449	     15.51223772	     -7.15005365	     -1.79644595	     14.88609807	     -8.36254972	     -0.14595403	      7.13484942	     -2.34536952	    -10.85607883	     -4.74506505	     -3.40085329	     -8.25846799	     -3.66795461	     -7.24644165	    -13.55715013	     18.46598589	     89.95437384	      0.00000000	      0.00000000	     17.01117953	     27.72734218	     14.30851262	     30.84853015	     89.95437384	      0.00000000	      0.00000000
      0.10000000	     -3.52185310	      2.71184072	      4.94845370	     -0.79005468	      0.94253778	     -1.45802042	     29.99382495	     -7.97848050	    -23.91044653	    -23.40363455	     -0.40847048	      3.57499935	     -6.91701676	     14.91603083	     -8.37284783	     -1.05076363	     15.62213058	     -8.30082510	     -0.14487673	      7.18917835	     -3.60540284	    -11.92318454	     -5.08961290	     -2.72762236	     -8.52813352	     -4.08262091	     -7.35037049	    -13.43560448	     18.38552462	     89.95437384	      0.00000000	      0.00000000	     17.59516860	     28.35794907	     14.44837576	     31.99382127	     89.95437384	      0.00000000	      0.00000000
